<svg xmlns="http://www.w3.org/2000/svg" viewBox="0 0 40 40" fill="none" role="img" aria-label="Agent Mail">
  <!-- Official Agent Mail mark from agent.qq.com (mail-bot.js brand SVG) -->
  <path d="M20 5C24.0038 5 27.1938 5.21519 29.6934 5.51367C34.6042 6.10035 37.5 10.4037 37.5 15.3496V24.6504C37.5 29.5963 34.6042 33.8997 29.6934 34.4863L28.7227 34.5947C26.383 34.8358 23.5032 35 20 35C15.9962 35 12.8062 34.7848 10.3066 34.4863C5.39575 33.8997 2.5 29.5963 2.5 24.6504V15.3496C2.5 10.5581 5.21772 6.3694 9.85254 5.5791L10.3066 5.51367C12.8062 5.21519 15.9962 5 20 5ZM20 8.15039C16.1082 8.15039 13.0441 8.3584 10.6807 8.64062C7.76907 8.98831 5.65039 11.5417 5.65039 15.3496V24.6504C5.65039 28.4583 7.76907 31.0117 10.6807 31.3594C13.0441 31.6416 16.1082 31.8496 20 31.8496C23.8918 31.8496 26.9559 31.6416 29.3193 31.3594C32.2309 31.0117 34.3496 28.4583 34.3496 24.6504V15.3496C34.3496 11.5417 32.2309 8.98831 29.3193 8.64062C26.9559 8.3584 23.8918 8.15039 20 8.15039ZM29.3369 21.0908C30.2068 21.0908 30.9121 21.7962 30.9121 22.666C30.9121 25.745 28.4159 28.2412 25.3369 28.2412H22.3369C21.4672 28.241 20.7617 27.5358 20.7617 26.666C20.7617 25.7963 21.4672 25.091 22.3369 25.0908H25.3369C26.6762 25.0908 27.7617 24.0053 27.7617 22.666C27.7617 21.7963 28.4672 21.091 29.3369 21.0908ZM15.2432 15C16.1129 15.0001 16.8184 15.7054 16.8184 16.5752V18.4248C16.8184 19.2946 16.1129 19.9999 15.2432 20C14.3733 20 13.668 19.2947 13.668 18.4248V16.5752C13.668 15.7053 14.3733 15 15.2432 15ZM22.7432 15C23.6129 15.0001 24.3184 15.7054 24.3184 16.5752V18.4248C24.3184 19.2946 23.6129 19.9999 22.7432 20C21.8733 20 21.168 19.2947 21.168 18.4248V16.5752C21.168 15.7053 21.8733 15 22.7432 15Z" fill="#111111"/>
</svg>
